<svg id="Group_813" data-name="Group 813" xmlns="http://www.w3.org/2000/svg" width="259.588" height="141.612" viewBox="0 0 259.588 141.612">
  <g id="Group_544" data-name="Group 544" transform="translate(20.98 82.059)">
    <path id="Path_1106" data-name="Path 1106" d="M117.908,199.148l-9.162,2.456L31.6,180.956l9.162-2.456Z" transform="translate(-31.6 -142.051)" fill="#f9f8f5"/>
    <path id="Path_1107" data-name="Path 1107" d="M147.174,191.348l-9.228,2.456L60.8,173.156l9.228-2.456Z" transform="translate(-41.414 -139.43)" fill="#f9f8f5"/>
    <path id="Path_1108" data-name="Path 1108" d="M176.474,183.448l-9.228,2.523L90.1,165.256l9.228-2.456Z" transform="translate(-51.261 -136.775)" fill="#f9f8f5"/>
    <path id="Path_1109" data-name="Path 1109" d="M205.708,175.648l-9.162,2.456L119.4,157.456,128.562,155Z" transform="translate(-61.109 -134.153)" fill="#f9f8f5"/>
    <path id="Path_1110" data-name="Path 1110" d="M234.974,167.814l-9.228,2.456L148.6,149.556l9.228-2.456Z" transform="translate(-70.923 -131.498)" fill="#f9f8f5"/>
    <path id="Path_1111" data-name="Path 1111" d="M264.274,159.948l-9.228,2.456L177.9,141.756l9.228-2.456Z" transform="translate(-80.77 -128.877)" fill="#f9f8f5"/>
    <path id="Path_1112" data-name="Path 1112" d="M293.508,152.114l-9.162,2.456L207.2,133.923l9.162-2.523Z" transform="translate(-90.618 -126.222)" fill="#f9f8f5"/>
    <path id="Path_1113" data-name="Path 1113" d="M322.775,144.248l-9.228,2.523L236.4,126.056l9.228-2.456Z" transform="translate(-100.432 -123.6)" fill="#f9f8f5"/>
  </g>
  <path id="Path_1114" data-name="Path 1114" d="M9.494,108.335C1.992,110.326,0,103.023,0,87.355c0-15.735,1.925-24.3,9.627-26.424,6.174-1.66,9.295,3.054,9.627,10.49l-5.71,2.324c-.332-5.112-1.859-7.436-3.983-6.9C6.9,67.571,5.842,70.757,5.842,85.5c0,14.473,1.129,17.594,3.983,16.863,1.925-.531,3.32-2.921,3.983-8.764l5.577-.73C18.457,100.567,16.133,106.608,9.494,108.335Z" transform="translate(0 -20.367)" fill="#f9f8f5"/>
  <path id="Path_1115" data-name="Path 1115" d="M77.5,90.5V44.627L83.21,43.1V83.266l13.212-3.519v5.776Z" transform="translate(-26.047 -14.486)" fill="#f9f8f5"/>
  <path id="Path_1116" data-name="Path 1116" d="M116.381,38.035V78.2l-5.71,1.527V39.562L103.7,41.421V35.645L123.285,30.4v5.776Z" transform="translate(-34.853 -10.217)" fill="#f9f8f5"/>
  <path id="Path_1117" data-name="Path 1117" d="M233.609,47.913l-4.183-19.519-3.917,1.062V50.037l-5.71,1.527V5.688l9.361-2.523c5.378-1.461,9.826.2,9.826,9.759,0,5.51-1.527,9.56-4.183,12.282l4.714,21.112ZM229.161,8.742l-3.651,1V24.012l3.386-.929c2.722-.73,4.382-3.12,4.382-8.3C233.211,9.472,231.95,8.012,229.161,8.742Z" transform="translate(-73.873 -0.908)" fill="#f9f8f5"/>
  <path id="Path_1118" data-name="Path 1118" d="M154.711,21.993V62.16l-7.5,1.992V23.985L141.3,25.578V71.455l19.32-5.112V20.4Z" transform="translate(-47.49 -6.856)" fill="#f9f8f5"/>
  <path id="Path_1119" data-name="Path 1119" d="M193.611,11.593v40.1l-7.5,2.058V13.585L180.2,15.178V61.055l19.32-5.178V10Z" transform="translate(-60.564 -3.361)" fill="#f9f8f5"/>
  <path id="Path_1120" data-name="Path 1120" d="M51.311,49.693V89.86l-7.5,1.992V51.685L37.9,53.278V99.221l19.32-5.178V48.1Z" transform="translate(-12.738 -16.166)" fill="#f9f8f5"/>
  <path id="Path_1121" data-name="Path 1121" d="M13.515,145.438v15.6L8,162.5V146.9l-6.9,1.859v-4.979L20.42,138.6v4.979Z" transform="translate(-0.37 -46.582)" fill="#f9f8f5"/>
  <path id="Path_1122" data-name="Path 1122" d="M37.9,154.56V133.979L57.153,128.8v4.78L43.344,137.3v2.722l9.892-2.656v4.714l-9.892,2.656v3.519l14.008-3.718v4.78Z" transform="translate(-12.738 -43.289)" fill="#f9f8f5"/>
  <path id="Path_1123" data-name="Path 1123" d="M83.929,143.442c-3.187.863-6.971.8-9.029-.066l2.656-5.178c1.461.664,5.112.664,6.971.2,1.992-.531,2.788-1.129,2.788-2.058,0-.8-1.394-.863-4.05-.8-4.78.133-7.768-.4-7.768-4.515,0-3.851,3.718-7.5,8.5-8.764,3.386-.929,6.506-.863,8.564.066L89.9,127.508a11.611,11.611,0,0,0-6.573-.2c-1.66.465-2.324,1.129-2.324,1.925s1.394.73,3.917.664c4.979-.133,7.9.73,7.9,4.581C92.826,139.127,88.709,142.181,83.929,143.442Z" transform="translate(-25.173 -40.868)" fill="#f9f8f5"/>
  <path id="Path_1124" data-name="Path 1124" d="M116.729,134.642c-3.187.863-6.971.8-9.029-.066l2.656-5.178c1.461.664,5.112.664,6.971.2,1.992-.531,2.788-1.129,2.788-2.058,0-.8-1.394-.863-4.05-.8-4.78.133-7.768-.4-7.768-4.515,0-3.851,3.718-7.5,8.5-8.764,3.386-.929,6.506-.863,8.564.066l-2.656,5.178a11.611,11.611,0,0,0-6.573-.2c-1.66.465-2.324,1.129-2.324,1.925s1.394.73,3.917.664c4.979-.133,7.9.73,7.9,4.581C125.626,130.327,121.509,133.381,116.729,134.642Z" transform="translate(-36.197 -37.911)" fill="#f9f8f5"/>
  <path id="Path_1125" data-name="Path 1125" d="M141.3,126.76V106.178L160.553,101v4.78L146.744,109.5v2.722l9.892-2.656v4.714l-9.892,2.656v3.519l14.008-3.718v4.78Z" transform="translate(-47.49 -33.945)" fill="#f9f8f5"/>
  <path id="Path_1126" data-name="Path 1126" d="M194.806,112.476l-5.71-5.245c-.863-1-3.253-3.054-3.784-3.784.133.863.2,3.585.2,5.245V115l-5.311,1.394V95.812l4.847-1.328,5.046,4.714c.929,1,3.651,2.988,4.116,3.784-.133-.863-.2-3.585-.2-5.245V92.094l5.311-1.394v20.581Z" transform="translate(-60.564 -30.484)" fill="#f9f8f5"/>
  <path id="Path_1127" data-name="Path 1127" d="M228.9,104.394l-9.1,2.456V86.27l9.627-2.589c6.241-1.66,10.224-.332,10.224,7.436S235.933,102.469,228.9,104.394Zm.465-15.867-4.05,1.062v10.822l3.851-1.062c3.452-.929,4.78-2.656,4.78-6.705C233.941,88.925,232.813,87.6,229.36,88.527Z" transform="translate(-73.873 -27.912)" fill="#f9f8f5"/>
  <path id="Path_1128" data-name="Path 1128" d="M272.11,49.461V27.751l-7.9-2.058V47.4l-5.71-1.461V0l5.71,1.461V19.917l7.9,2.058V3.585l5.71,1.461V50.988Z" transform="translate(-86.88)" fill="#f9f8f5"/>
  <path id="Path_1129" data-name="Path 1129" d="M371.725,77.212c-5.444-1.394-9.295-6.44-10.025-14.473l5.51.531c.6,5.245,2.589,7.369,4.448,7.834,2.058.531,3.054-.6,3.054-3.386,0-4.315-1.394-7.037-5.776-13.743-3.585-5.51-6.307-10.822-6.307-16.067,0-5.776,2.855-9.627,8.5-8.166,5.776,1.527,8.764,6.705,9.627,12.946l-5.444-.2c-.664-4.05-2.257-6.307-4.116-6.772-1.793-.465-2.788.6-2.788,3.519,0,3.187,1.195,5.776,4.714,11.154,4.382,6.705,7.3,12.481,7.3,18.324C380.489,74.888,377.235,78.673,371.725,77.212Z" transform="translate(-121.564 -9.892)" fill="#f9f8f5"/>
  <path id="Path_1130" data-name="Path 1130" d="M309.911,13.585V53.752l-7.5-2.058v-40.1L296.5,10V55.942l19.32,5.112V15.178Z" transform="translate(-99.651 -3.361)" fill="#f9f8f5"/>
  <path id="Path_1131" data-name="Path 1131" d="M258.4,100.981V80.4l19.253,5.178v4.78l-13.809-3.718v2.788l9.892,2.656V96.8l-9.892-2.656v3.519l14.008,3.718v4.78Z" transform="translate(-86.846 -27.022)" fill="#f9f8f5"/>
  <path id="Path_1132" data-name="Path 1132" d="M310.044,114.833,306.791,107l-4.847-1.328v6.971l-5.444-1.461V90.6l11.552,3.12c4.647,1.261,7.768,3.917,7.768,8.764,0,3.12-1.394,4.647-3.585,5.046l3.983,8.9Zm-2.125-16.465-5.975-1.593v4.515l5.909,1.593c1.793.465,2.523-.133,2.523-1.593A2.878,2.878,0,0,0,307.919,98.368Z" transform="translate(-99.651 -30.45)" fill="#f9f8f5"/>
  <path id="Path_1133" data-name="Path 1133" d="M332.9,120.981V100.4l5.577,1.461v15.6l9.494,2.523v4.979Z" transform="translate(-111.885 -33.744)" fill="#f9f8f5"/>
  <path id="Path_1134" data-name="Path 1134" d="M369.79,132.24a14.2,14.2,0,0,1-10.49-13.411c0-6.838,5.178-9.295,10.556-7.834a14.2,14.2,0,0,1,10.49,13.411C380.346,131.31,375.167,133.7,369.79,132.24Zm0-16.266c-2.191-.6-4.78.6-4.78,4.315a7.309,7.309,0,0,0,4.847,6.971c2.191.6,4.78-.6,4.78-4.315A7.309,7.309,0,0,0,369.79,115.974Z" transform="translate(-120.758 -37.168)" fill="#f9f8f5"/>
  <path id="Path_1135" data-name="Path 1135" d="M349.5,30.024V24.182L332.9,19.8v5.776l5.444,1.461V61.361L332.9,59.9v5.776l6.772,1.859h0l4.647,1.2,5.178,1.394V64.348l-5.444-1.461V28.564Z" transform="translate(-111.885 -6.655)" fill="#f9f8f5"/>
</svg>
