<svg id="Group_574" data-name="Group 574" xmlns="http://www.w3.org/2000/svg" xmlns:xlink="http://www.w3.org/1999/xlink" width="48.313" height="44.919" viewBox="0 0 48.313 44.919">
  <defs>
    <clipPath id="clip-path">
      <rect id="Rectangle_692" data-name="Rectangle 692" width="48.313" height="44.919" fill="#1a2c33"/>
    </clipPath>
  </defs>
  <g id="Group_573" data-name="Group 573" clip-path="url(#clip-path)">
    <path id="Path_1162" data-name="Path 1162" d="M15.717,22.765a1.619,1.619,0,0,1-.022-2.254l.04-.044.049-.048.012-.012c.3-.306.482-.48.5-.5l.018-.018L26.681,9.584a3.41,3.41,0,0,0,1.013-2.43c0-.006,0-.012,0-.018s0-.011,0-.017a3.412,3.412,0,0,0-1.006-2.434l-3.68-3.68a3.434,3.434,0,0,0-4.857,0L1.742,17.415a6.007,6.007,0,0,0,0,8.459l9.187,9.187a3.411,3.411,0,0,0,2.428,1.006h.01a3.411,3.411,0,0,0,2.432-1.02l3.664-3.707a3.442,3.442,0,0,0-.014-4.843ZM3.03,24.552a4.1,4.1,0,0,1,0-5.815L19.439,2.328a1.612,1.612,0,0,1,2.28,0l3.68,3.68a1.573,1.573,0,0,1,0,2.249l-10.356,10.3c-.054.051-.25.239-.545.542l-.059.058c-.022.021-.042.043-.064.068-1.836,1.913-5.574,6.311-5.94,10.73Zm15.137,5.507L14.5,33.766a1.6,1.6,0,0,1-1.142.479h-.005a1.6,1.6,0,0,1-1.14-.472l-1.841-1.841c-.731-3.064,1.4-6.654,3.28-9.085a3.375,3.375,0,0,0,.773,1.207l3.732,3.732a1.617,1.617,0,0,1,.007,2.274" transform="translate(0 0)" fill="#1a2c33"/>
    <path id="Path_1163" data-name="Path 1163" d="M122.594,55.151a5.919,5.919,0,0,0-1.745-4.213l-9.187-9.186a3.434,3.434,0,0,0-4.871.014l-3.664,3.706a3.442,3.442,0,0,0,.014,4.843l3.732,3.733a1.62,1.62,0,0,1,.02,2.257l-.038.042-.06.06c-.3.306-.482.48-.5.5l-.019.018L95.911,67.228A3.411,3.411,0,0,0,94.9,69.659c0,.006,0,.012,0,.017s0,.011,0,.017A3.411,3.411,0,0,0,95.9,72.126l3.68,3.68a3.434,3.434,0,0,0,4.857,0L120.85,59.4a5.93,5.93,0,0,0,1.716-3.652q.029-.295.029-.595m-3.033-2.89a4.109,4.109,0,0,1,0,5.815L103.152,74.484a1.612,1.612,0,0,1-2.28,0l-3.68-3.68a1.574,1.574,0,0,1,0-2.249L107.56,58.249h0c.094-.086.253-.24.532-.528l.064-.063c.021-.021.041-.043.062-.067,1.835-1.912,5.575-6.313,5.941-10.732Zm-15.131-3.233a1.616,1.616,0,0,1-.007-2.274l3.664-3.706a1.6,1.6,0,0,1,1.142-.479h0a1.6,1.6,0,0,1,1.14.472l1.841,1.841c.732,3.065-1.4,6.655-3.28,9.085a3.38,3.38,0,0,0-.773-1.207Z" transform="translate(-74.282 -31.894)" fill="#1a2c33"/>
  </g>
</svg>
