<svg xmlns="http://www.w3.org/2000/svg" width="297.333" height="162.678" viewBox="0 0 297.333 162.678">
  <g id="Group_1088" data-name="Group 1088" transform="translate(0.026 0.044)">
    <path id="Path_1914" data-name="Path 1914" d="M193.7,216.867v8.186l.067,3.623-6.307-11.809h-3.087V233.91h2.751v-8.186l-.067-3.623,6.307,11.809h3.087V216.867Zm12.682,0v2.55h4.093l3.019-.067L206.18,231.9v2.013h11.071v-2.55h-4.5l-3.019.067,7.314-12.548v-2.013Zm14.292,0V233.91h10.132v-2.55h-7.247v-4.9h6.106v-2.55h-6.106V219.35h7.247V216.8H220.674Zm13.621,0V233.91h10.132v-2.55H237.18v-4.9h6.106v-2.55H237.18V219.35h7.247V216.8H234.295Zm-75.419,3.288,1.745,7.381h-3.556ZM156.8,216.8l-4.5,17.177h3.154l.939-3.892h4.831l.939,3.892h3.154l-4.5-17.177Zm17.848,3.355,1.745,7.381h-3.556Zm-2.013-3.355-4.5,17.177h3.154l.939-3.892h4.831l.939,3.892h3.154l-4.5-17.177Z" transform="translate(-50.117 -71.344)" fill="#fff"/>
    <path id="Path_1915" data-name="Path 1915" d="M235.862,194.8V182.852h1.946c3.019,0,4.16,1.677,4.16,5.569v.872c0,3.825-1.141,5.569-4.16,5.569h-1.946Zm9.125-5.569v-.872c0-5.9-2.214-8.119-6.978-8.119h-5.032v17.043h5.032c4.764.067,6.978-2.147,6.978-8.052m-22.008-5.7,1.745,7.381h-3.556Zm-2.08-3.355-4.5,17.177h3.154l.939-3.892h4.831l.939,3.892h3.154l-4.5-17.177Zm-9.6,2.684H215.4V180.3H204.326v2.55h4.093v14.493h2.952V182.852ZM194.932,189.9c2.617.335,3.422,1.141,3.422,2.617v.134c0,1.409-1.074,2.416-2.885,2.416h-.2c-1.812,0-2.952-1.074-2.952-3.489h-2.952v.2c0,3.892,2.08,5.838,5.972,5.838,3.825,0,5.972-1.879,5.972-5.1v-.268c0-3.019-1.745-4.361-5.5-4.831-2.684-.4-3.355-1.141-3.355-2.55v-.134c0-1.342,1.074-2.214,2.684-2.214h.2c2.013,0,2.885,1.141,2.885,3.69h2.952v-.537c0-3.825-1.745-5.771-5.838-5.771-3.69,0-5.838,1.946-5.838,4.965v.2c.067,2.885,1.677,4.361,5.435,4.831m-25.3-9.662v17.043h10.132v-2.55h-7.247v-4.9h6.106v-2.483h-6.106v-4.563h7.247v-2.55Zm-12.95,14.56V182.852h1.946c3.019,0,4.16,1.677,4.16,5.569v.872c0,3.825-1.141,5.569-4.16,5.569h-1.946Zm9.125-5.569v-.872c0-5.9-2.214-8.119-6.978-8.119H153.8v17.043h5.032c4.764.067,6.978-2.147,6.978-8.052" transform="translate(-50.611 -59.204)" fill="#fff"/>
    <g id="Group_1042" data-name="Group 1042" transform="translate(-0.027 -0.044)">
      <path id="Path_1916" data-name="Path 1916" d="M308.637,53.866c-.671,2.885-1.476,5.771-2.281,8.589-1.409,5.167-2.818,10.266-4.294,15.433-.134.47-.537,1.342-.939,1.342-.47,0-.738-.872-.872-1.745-.537-3.489.671-8.656,1.677-12.48a98.574,98.574,0,0,1,3.422-10.065c.805-1.812,2.214-3.087,3.019-2.751.335.067.4,1.141.268,1.677M247.979,60.71a53.964,53.964,0,0,1,1.409-5.435,41.4,41.4,0,0,1,2.013-5.032c.6-1.208,1.006-1.141,1.745.067a5.68,5.68,0,0,1,.805,3.288c-.067,3.355-.872,6.039-3.422,7.851a6.138,6.138,0,0,1-1.141.6c-.805.134-1.745.268-1.745.268s.268-1.141.335-1.61m80.854,18.117a32.177,32.177,0,0,1-1.007-4.227c-.537-4.63-.939-9.26-1.409-13.889-.2-2.147-.4-4.361-.537-6.509q-.2-2.516-.2-5.032c-.067-1.946-.134-13.621,0-17.513.134-3.556.738-7.112,1.074-10.736.47-4.7.805-9.327.872-14.024a6.008,6.008,0,0,0-4.5-5.771c-1.812-.47-3.623-.738-5.368-1.141-.6-.134-.671.2-.738.671-.537,3.355-1.141,6.643-1.677,10-1.275,7.381-3.154,14.628-3.892,22.076-.268,2.751-.671,5.5-.939,8.253-.2,1.879-.268,3.758-.47,5.569-.067.738-.335,1.275-1.208,1.342a9.937,9.937,0,0,0-7.515,5.032,47.589,47.589,0,0,0-6.307,16.238c-.47,2.348-.805,4.7-1.342,6.978-.335,1.61-1.476,4.831-2.147,4.831-.4-.134-.671-1.342-.738-1.677-.2-1.946-.134-3.489-.268-5.435-.067-1.476.335-12.682.335-12.95.134-2.348.4-6.106.268-8.454a5.3,5.3,0,0,0-.671-2.818,3.3,3.3,0,0,0-2.013-1.208,9.121,9.121,0,0,0-7.918,2.281c-3.221,3.422-4.965,6.844-7.045,11.071C272.6,63.6,272,65.206,270.994,66.95c-.134.2-.47.6-.738.537-.2-.067-.2-.6-.2-.872.067-1.074.2-1.543.336-2.617a29.678,29.678,0,0,1,.671-3.355c.537-2.885,1.275-5.7,1.745-8.589.335-2.214.4-4.429.738-6.643a2.43,2.43,0,0,0-.939-2.55,38.412,38.412,0,0,0-3.825-2.617c-1.074-.6-1.677-.335-2.147.805-.4.939-.738,1.879-1.208,2.751A198.647,198.647,0,0,0,258.648,63.6a36.836,36.836,0,0,1-1.61,5.972,62.517,62.517,0,0,1-2.885,6.911c-1.074,2.147-2.281,4.294-3.556,6.307-.335.537-1.275,1.141-1.745,1.006a2.512,2.512,0,0,1-1.275-1.677,35.842,35.842,0,0,1-.872-5.9c-.067-2.885.134-5.838.335-8.723a2.214,2.214,0,0,1,1.61-2.147,11.861,11.861,0,0,0,2.55-1.006,10.324,10.324,0,0,0,2.483-1.543c3.154-4.093,2.885-6.441,3.019-8.387a12.02,12.02,0,0,0-1.275-6.643c-1.141-2.013-2.617-2.885-4.831-2.214-1.677.47-3.355,1.208-5.032,1.812a8.422,8.422,0,0,0-4.429,3.892,57.817,57.817,0,0,0-2.952,6.576,40.218,40.218,0,0,0-2.684,9.327c-.671,4.63-1.006,9.125.134,13.688,1.006,4.026,4.361,7.918,8.723,8.32a18.956,18.956,0,0,0,4.764-.268c1.812-.335,3.758-.738,4.764-2.617,1.141-2.013,2.214-4.093,3.288-6.106.268-.537.537-1.141.939-1.946a41.117,41.117,0,0,0,1.677,4.429,3.811,3.811,0,0,0,1.745,1.812,10.465,10.465,0,0,0,5.9.671,3.809,3.809,0,0,0,2.281-1.342,16.882,16.882,0,0,0,3.288-7.314,52.192,52.192,0,0,1,1.879-7.247,52.722,52.722,0,0,1,5.838-12.682,20,20,0,0,1,2.348-3.154,2.315,2.315,0,0,1,1.879-.872c.872.2-.335,3.087-.738,3.959-.738,1.745-1.677,3.355-2.281,5.1-2.08,5.838-3.69,11.742-3.489,18.05a33.9,33.9,0,0,0,.4,4.5,24.694,24.694,0,0,0,1.074,3.623,2.543,2.543,0,0,0,.4.872,4.775,4.775,0,0,0,3.422,2.08,33.608,33.608,0,0,0,4.5.2,5,5,0,0,0,4.429-3.69c.6-1.879,1.409-3.69,2.214-5.771.6.6.939,1.074,1.409,1.476a7.754,7.754,0,0,0,1.812,1.208,6.615,6.615,0,0,0,8.253-3.288,28.124,28.124,0,0,0,2.281-5.7c.738-2.348,1.275-4.764,1.879-7.112.134-.4.268-.738.4-1.141h.335c.134.738.336,1.543.47,2.281.336,3.154.6,6.24.939,9.394a54.87,54.87,0,0,0,2.617,12.279c.872,2.348,1.745,4.7,2.751,6.978a12.755,12.755,0,0,0,4.764,5.569,6.858,6.858,0,0,0,5.167,1.275c1.745-.268,2.147-.738,2.08-2.55a31.511,31.511,0,0,1,.067-5.032,50.432,50.432,0,0,1,1.275-6.173,8.9,8.9,0,0,0-.335-4.965c-.805-2.416-1.543-4.764-2.214-7.113" transform="translate(-77.262 0.044)" fill="#fff"/>
      <path id="Path_1917" data-name="Path 1917" d="M166.079,75.87a9.712,9.712,0,0,1,1.946,5.7,9.72,9.72,0,0,1-.067,2.483,18.687,18.687,0,0,1-.738,3.556,2.2,2.2,0,0,1-2.214,1.275,8.8,8.8,0,0,1-6.643-6.039,5.466,5.466,0,0,1,.6-3.556c.805-1.677,1.61-3.355,2.281-5.1a7.418,7.418,0,0,1,.47-.872l.671.335a17.373,17.373,0,0,1,3.69,2.214M143,62.651a8.747,8.747,0,0,0-.268-1.409c-.134-.6.335-.6.4-.067-.067-.47.134.939.2,1.476.067,1.812-.268.335-.335,0m-1.074,2.684a39.865,39.865,0,0,1-3.019,13.42,31.884,31.884,0,0,1-3.154,5.234,6.021,6.021,0,0,1-3.556,2.214,2.406,2.406,0,0,1-3.087-1.409,16.844,16.844,0,0,1-1.275-7.448c.2-3.087.671-6.71,2.751-9.864a13.607,13.607,0,0,1,3.154-3.355,46.87,46.87,0,0,1,4.361-2.617,21.517,21.517,0,0,0,2.08-1.275c1.006-.738,1.409-.671,1.543.6a34.111,34.111,0,0,1,.2,4.5M130.047,88.82c2.885-.335,4.16-.872,4.9-1.812.067-.067.134.067.2.134-.2.268-.805,1.141-.939,1.409h.537a.851.851,0,0,0,.4-.067c-.537,1.342-2.684,1.745-4.5.738m-.336-1.677a5.911,5.911,0,0,1-4.026-1.946,13.622,13.622,0,0,1-1.946-2.885,15.549,15.549,0,0,1-1.074-2.952,29.749,29.749,0,0,1-.4-13.957c.067-.335.2-.671.268-1.006.134-.47.4-1.074.335,0,0-.6-.067,1.141-.2,1.745a14.546,14.546,0,0,0-.2,7.582l.2.537c.067.134.2,1.006.268,1.074.939.872.939,2.013,1.074,3.154-.2-.4-.268-.939-.47-1.275-.268-.4-.537-.537-.4.2a19.292,19.292,0,0,0,.738,2.818,16.683,16.683,0,0,0,1.208,3.019A8.5,8.5,0,0,0,127.7,86a13.233,13.233,0,0,0,2.818,1.342c.268-.067.067.2-.2.2m-4.764-6.307c.2.47-.2.6-.268.067.134.537-.2-1.006-.268-1.543.134.47.335.939.537,1.476m87.3-40.259h0c1.946-.537,3.892-1.141,5.9-1.677l-.067-.067c-1.812.47-6.106,1.275-6.173,1.208a7.131,7.131,0,0,0,.738-.6c.738-.671.671-.872-.134-1.342a1.779,1.779,0,0,1-.4-.335c1.141-1.275,2.818-1.275,4.093-2.08a72.227,72.227,0,0,0,9.8-2.214c.268-.134.4-.4.671-.6a2.067,2.067,0,0,0-.805-.335c-1.745-.134-15.1,2.416-16.641,3.087-.2,0-.47.067-.671.067-.671.067-.6-.671-.067-.805,5.032-1.476,10.132-2.348,15.164-3.758a21.945,21.945,0,0,0-2.952-.268c-1.677-.067-3.355-.335-5.032-.335-6.106-.067-12.212-.268-18.251,1.074-1.879.4-2.214.134-2.214-1.812,0-3.825,0-7.649.134-11.474a13.9,13.9,0,0,1,1.745-6.71,6.855,6.855,0,0,0,.671-2.617c.067-2.751-3.221-5.1-5.636-4.7-1.275.2-2.617.47-3.892.738a2.821,2.821,0,0,0-2.08,3.154,7.008,7.008,0,0,1-.537,3.69c-1.208,2.885-2.281,5.9-3.221,8.857-1.677,5.569-3.288,11.675-4.965,17.312-.805,2.684-1.879,5.7-2.684,7.716-1.879,4.294-4.294,8.387-6.441,12.548-.872,1.677-1.812,3.288-2.617,4.965-.134.268-1.074,1.745-1.342,2.416-.067-.067-.134-.067-.2-.134-2.952-1.543-5.9-4.294-3.422-8.857.872-1.61,1.812-3.087,3.892-3.556a8.753,8.753,0,0,0,3.221-1.476c1.141-.939,1.006-2.416.47-3.892a3.933,3.933,0,0,0-3.422-2.55c-1.476-.2-6.173.067-6.777,0a1.852,1.852,0,0,0-2.013.805c-.738,1.275-1.61,2.416-2.281,3.69a2.487,2.487,0,0,1-2.416,1.61c-1.61.268-3.221.268-4.429.4s-2.348.2-3.556.335a1.287,1.287,0,0,1-1.409-.872,6.522,6.522,0,0,0-5.9-3.959c-1.476-.134-2.885-1.006-4.5-.537-1.342.4-2.751.335-4.026.738a4.847,4.847,0,0,1-1.879.47c-.805-.067-1.342.335-1.141,1.275a7.634,7.634,0,0,1-.671,4.227,48.851,48.851,0,0,0-3.221,14.091,37.884,37.884,0,0,0,4.026,19.727,14.122,14.122,0,0,0,2.818,3.959c4.026,3.623,6.978,3.758,10.937,1.61a19.227,19.227,0,0,0,6.24-5.838A27.532,27.532,0,0,0,149.841,76c.671-4.16,1.006-8.253,0-12.346-.537-2.147-1.342-4.227-2.08-6.374-.134-.47-.47-1.074.2-1.275,1.275-.47,3.288-.872,4.63-1.275,0,2.214-.2,3.355-.2,5.368a12.47,12.47,0,0,0,2.281,6.844,17.429,17.429,0,0,0,4.831,4.831c.537.335,1.677,1.141,1.677,1.141s-.47.738-.738,1.074l-2.617,4.026a10.113,10.113,0,0,0-1.543,5.569A26.44,26.44,0,0,0,159.3,95.932c1.275,2.348,2.617,4.563,4.965,6.039a2.558,2.558,0,0,0,3.556-.671,37.945,37.945,0,0,0,4.831-11.407,58.127,58.127,0,0,0,1.074-6.71c.4-3.355.47-6.643-1.141-9.729a9.929,9.929,0,0,0-2.348-2.952,40.228,40.228,0,0,0-3.087-2.684c-.4-.268-1.342-.872-1.879-1.275-.067-.067,3.556-2.684,4.16-3.355a21.471,21.471,0,0,0,4.5-6.173c1.946-4.026,3.758-7.448,5.636-11.541.537-1.141,1.006-1.275,2.147-.805,1.074.4,1.208,1.208,1.141,2.214-.2,3.422-.47,6.844-.6,10.266-.2,6.039-.47,12.078-.47,18.05A27.553,27.553,0,0,0,184.8,87.612c.738,1.543,1.409,3.087,2.08,4.63.2.4.47.805.671,1.275.067,0,.2-.067.268-.067a4.129,4.129,0,0,1-.134-1.275,8.5,8.5,0,0,1,.4-1.208c.268.268.671.4.872.738.671,1.006,1.208,2.013,1.879,3.087a3.081,3.081,0,0,0,.805-2.617c0-.805-.134-1.61-.134-2.483.067-2.617.134-5.3.268-7.918.134-2.952.067-5.972.4-8.924.537-4.764,1.409-9.461,2.013-14.225.47-3.556.805-7.716,1.208-11.34.2-1.677.335-2.013,1.677-2.214a117.98,117.98,0,0,0,15.768-4.093h0" transform="translate(-39.848 -1.494)" fill="#fff"/>
      <path id="Path_1918" data-name="Path 1918" d="M80.055,180.2c-.47.067-.805.067-1.141.134a31.909,31.909,0,0,1-9.394,2.147c-.537.067-.872,0-.939-.6a.73.73,0,0,0-1.006-.671,41.77,41.77,0,0,1-4.965.6c-1.208.067-2.483.939-3.623-.2-.067-.067-.2,0-.335.067-1.812.2-3.556.47-5.368.671-4.5.4-8.991,1.074-13.487,1.141-4.563.067-9.125-.47-13.688-.671-2.952-.134-5.838,0-8.857,0,.2.067.335.134.671.268-.335.134-.47.2-.671.268-2.013.671-4.093,1.275-6.106,1.946a6.525,6.525,0,0,0-1.006.671,8.378,8.378,0,0,1,.805.537c-.6.47-1.141.939-1.543,1.275.939,1.074,1.879,2.013,1.745,3.556a5.309,5.309,0,0,1,.872.335,5.728,5.728,0,0,0-.939.738h.268c1.275,0,1.476.4,1.543,2.416.2.067.4.067.537.2a6.644,6.644,0,0,0,4.227.872,5.078,5.078,0,0,1,1.006-.067c4.965.4,9.931.738,14.9,1.208a62.1,62.1,0,0,0,16.171-.268A64.962,64.962,0,0,0,61,193.754,47.259,47.259,0,0,1,69.923,191a24,24,0,0,0,2.348-.6c-2.08.2-4.026.939-6.173.47.134-.268.268-.47.47-.537,1.006-.4,2.08-.872,3.087-1.208,2.147-.671,4.361-1.006,6.24-2.348a32.483,32.483,0,0,1,3.087-1.61c-.872.2-1.61.335-2.281.537a2.308,2.308,0,0,1-1.879-.067c.805-.268,1.812-.268,1.946-1.342,0-.067.134-.134.2-.134.738-.268,1.476-.47,2.281-.738a6.686,6.686,0,0,0,.268-.738c-.872.335-1.677.671-2.483,1.006-.067-.067-.067-.134-.134-.2.6-.4,1.208-.872,1.677-1.208,0-1.208,1.074-1.208,1.476-2.08" transform="translate(-3.075 -59.258)" fill="#fff"/>
      <path id="Path_1919" data-name="Path 1919" d="M72.995,60.164a23.821,23.821,0,0,1-.4,3.758A37.514,37.514,0,0,1,68.835,75.06c-.671,1.006-1.074,2.013-1.812,3.019-1.745,2.214-4.429,3.154-6.643,4.63a.513.513,0,0,1-.335.134c-2.08-.2-3.69,1.006-5.435,1.879-2.214,1.208-8.052,4.9-13.286,5.7A17.123,17.123,0,0,1,27.3,86.466c-4.361-3.69-6.978-9.662-7.448-10.937a59.206,59.206,0,0,1-3.087-12.547A67.044,67.044,0,0,1,16.5,52.447c.335-4.294,1.208-8.991,2.684-12.145,1.745-3.758,4.026-9.528,12.682-14.628a25.26,25.26,0,0,1,10-3.288,34.1,34.1,0,0,1,11.071.939,25.822,25.822,0,0,1,8.589,4.026c5.5,3.959,8.79,11,10.4,17.312.335,1.342,1.409,4.563,1.074,15.5M62.259,98.209c1.006-.537,1.208-1.006,2.214-1.543.872-.47,1.141.067.2.47a60.031,60.031,0,0,1-7.783,5.636,37.145,37.145,0,0,1-5.7,2.751A18.867,18.867,0,0,1,42.2,107.2a7.259,7.259,0,0,0-1.208,0c.805.134,2.08.268,3.221.4a3.546,3.546,0,0,1-.805.067,32.634,32.634,0,0,1-3.623,0,45.511,45.511,0,0,1-5.9-1.074c-2.147-.6-4.227-1.61-6.307-2.416-.2-.067-.47-.268-.671-.2-.939.335-2.55-.537-3.154-1.006-1.006-.805-6.106-5.5-4.429-4.429a30.748,30.748,0,0,0,10.8,4.965c.47.134,5.234.939,5.771.939a1.244,1.244,0,0,0-.47-.134v-.134c1.342,0,3.623.134,4.965.134A38.825,38.825,0,0,0,53,102.771c3.288-1.006,6.24-2.885,9.26-4.563M44.746,15.073c.47,0,2.147-.067,1.409-.2a38.61,38.61,0,0,0-6.106-.4c-.671,0-.738-.2,0-.268a43.28,43.28,0,0,1,7.247-.134v-.134c-1.006-.134-5.972-.872-3.892-.872,7.314-.4,12.749,1.946,15.835,5.5-.805-.47-1.543-.872-2.214-1.275,0,.067-.067.067-.067.134,2.013,1.543,4.026,3.154,6.039,4.7.805.872-.067.4-.268.268a32.685,32.685,0,0,0-4.294-2.55c-1.275-.47-1.812-.805-3.087-1.208-1.677-.537-3.087-1.074-4.764-1.543-1.006-.268-2.281-.47-3.288-.671-1.476-.268-3.355-.335-4.9-.47-4.16-.335-8.186.805-8.253.47,2.818-1.342,8.656-1.342,10.6-1.342M80.174,43.456c-.067-.738-.2-1.476-.2-2.147-.067-.805-.067-1.61-.2-2.416a29.332,29.332,0,0,0-.805-3.489,24.912,24.912,0,0,0-1.074-3.154,5.26,5.26,0,0,0-.335-.939C75.88,27.017,71.183,19.77,68.7,18.227c1.006,1.208,1.946,2.214,2.751,3.355.805,1.074,1.342,2.147,2.08,3.288-.067.067.067.134,0,.2-2.348-3.087-4.7-6.106-7.851-8.387,0,0-.4-.2-.134.134.134.2.268.335.47.6-.268,0-.268.2-.6,0,1.61,1.745,3.154,3.489,4.7,5.167-.268.2-.872-.47-.872-.47-4.294-4.764-8.253-8.387-14.56-10.333,2.617,1.006,5.636,2.416,7.314,4.227.2.2-.537-.134-.671-.2-.47-.134-.47.067-.2.2.268.2.6,1.208-.4.537-1.275-.872-2.952-1.61-4.026-2.348-.335.268.335.537.268.537,2.214,1.61,4.831,3.556,7.045,5.167-.067.067,1.006,1.074-.6,0a46.884,46.884,0,0,0-5.3-3.69A35.193,35.193,0,0,0,52.06,13.4a32.266,32.266,0,0,0-6.173-1.141c-4.361-.6-7.045-.268-11.474.537-2.751.134,5.771-2.348,11.138-2.416v-.268c-2.281-.067-4.5-.2-6.777-.268V9.705c1.812-.335,5.636-.335,7.448-.671A1.982,1.982,0,0,0,45.35,8.9c-2.617.134-5.9-.268-11.206,1.006a36.716,36.716,0,0,0-12.95,5.032A47.184,47.184,0,0,0,5.359,32.385a40.563,40.563,0,0,0-2.483,5.5c-.4,1.275-.6,2.617-.872,3.69-.4.2-.671.268-.738.47a7.824,7.824,0,0,0-.6,3.019c-.335,2.617-.537,5.3-.671,7.985a59.193,59.193,0,0,0,.2,5.972A54.982,54.982,0,0,0,2.138,69.356c.268.872,1.677,5.5,3.422,9.729s5.771,11.608,7.045,13.822a39.627,39.627,0,0,0,9.729,11.877,29.635,29.635,0,0,0,4.5,3.087c1.074.6,2.348.872,3.489,1.409a21.84,21.84,0,0,0,9.193,1.812,35.237,35.237,0,0,0,8.723-1.342,53.154,53.154,0,0,0,8.656-3.154,11.473,11.473,0,0,0,1.543-.872c.537-.335,1.409-1.006.6-.671a14.357,14.357,0,0,1-1.476.671c-.268.067-1.946.939-.134-.268,4.294-2.684,4.63-3.556,6.777-5.636,1.342-1.275.738-.805-.134-.47-2.348,1.543-.268-1.006,1.074-2.08.939-.939.805-.872.335-1.208-.335-.2-3.355,1.946-3.623,1.677s2.013-2.684,3.422-4.026c0-.067.671-1.006-.134-.335-.335.134-7.851,3.892-8.119,3.758-.067-.4,8.656-4.026,9.662-5.7.268-.47-.738.335-.738-.2a6.889,6.889,0,0,1,.335-1.61c.134-.268.4-.537.4-.872A2.607,2.607,0,0,1,68.03,86.6a1.827,1.827,0,0,0,.537-.671c.537-1.006-.671-.872,1.677-3.087.268-.47-1.141-1.745-1.61-2.818a2.881,2.881,0,0,1-.268-1.812,36.081,36.081,0,0,1,2.348-4.5c.738.134-.738,2.08-.671,2.281a10.24,10.24,0,0,0,.738-1.074c.6-1.275.805-1.409,1.342-2.751.872-2.281,1.275-3.623,2.013-6.106a19.927,19.927,0,0,0,.6-2.281c.6-2.751,2.348-11.742,2.348-11.742,1.074,2.684-.268,6.71-.335,9.394.805-4.16,1.812-10.266,1.543-14.493A8.868,8.868,0,0,0,78.162,45a1.407,1.407,0,0,1,.134-1.141c.134-.067.268.134.268.268a5.683,5.683,0,0,1,.268,1.141c.134.872.268,1.745.4,2.684.067-1.006-.268-1.879-.134-2.751.067.134.067.268.134.335s.2.2.268.2a.3.3,0,0,0,.2-.268c0-.134-.067-.335-.067-.47a3.783,3.783,0,0,1,.067-.47,6.956,6.956,0,0,0-.47-2.08c-.067-.335-.2-.6-.268-.939-.335-1.208-.6-2.416-.939-3.556-.067-.4-.6-1.745-.738-2.214.134.067.6,1.141.671,1.141h.067c0,.067.067.067.067.134a26.8,26.8,0,0,1,1.677,6.441c0,.134.067.268.067.4h.134a.522.522,0,0,0,.2-.4" transform="translate(0.027 -2.898)" fill="#fff"/>
      <path id="Path_1920" data-name="Path 1920" d="M413.334,95.99c2.214-2.147,3.556-4.294,5.569-6.643.805-.939,1.879-2.416,2.684-3.355-.336.4-1.275,1.141-1.543,1.409-2.08,2.416-3.221,3.623-5.3,6.039a38.009,38.009,0,0,1-3.288,3.288q-2.315,2.013-4.831,3.825c-.2.134-.671.268-.738.335.268-.2.939-.939,1.409-1.342,1.275-1.208,2.483-2.483,3.758-3.758.537-.537.939-1.208,1.476-1.812.805-.872,1.61-1.745,2.483-2.55,1.275-1.275.067-.4-.2-.268-.2.134-.4.335-.6.47-2.348,2.013-4.63,4.16-7.113,6.039a28.773,28.773,0,0,1-11.071,5.569,7.128,7.128,0,0,1-3.758-.134,11.648,11.648,0,0,1-6.039-5.167,1.345,1.345,0,0,1,.134-1.812c1.677-1.879,3.221-3.892,4.965-5.7,3.825-3.959,5.234-7.448,6.71-12.145a11.038,11.038,0,0,0,.336-2.147,11.988,11.988,0,0,0-.738-4.093c.805,2.818-.335,4.831-1.342,6.844.2-2.147.671-3.556.805-5.636.134-1.946.134-4.563-1.745-5.972a8.243,8.243,0,0,1-1.745-1.677c-.537-.671-4.026-.671-6.374,1.006-3.892,2.885-5.972,7.314-7.582,11.877a32.167,32.167,0,0,0,.2,22.478,30.015,30.015,0,0,0,3.623,6.374,10.788,10.788,0,0,0,5.771,4.093c4.294,1.543,7.247,1.074,11.138-.134a43,43,0,0,0,6.106-3.019c2.617-1.342,4.5-3.825,5.972-6.307.47-.805.805-1.275,1.275-2.08s1.275-2.08,1.745-2.952c-.067-.067-.47.4-.872.738-.671.6-1.007.805-1.677,1.342-.2.134-.671.4-.537.134,1.812-3.019.537-1.812.537-1.812s-4.764,4.026-7.314,6.173a1.547,1.547,0,0,1-.6.4c.2-.134.268-.134,0,0h0c-.537.268-2.214,1.141-2.885,1.409-3.69,1.543-.939,0-.268-.4s2.416-1.275,2.885-1.543h-.067c.268-.134.2-.134.067,0a1.6,1.6,0,0,1,.805-.268c.067-.738.336-.47.872-.872A65.23,65.23,0,0,0,413.334,95.99Zm-28.92-5.972c-.134.2-.268.6-.47.6h-.134c-.6-.134-.537-2.55-.336-3.825,2.013-11.742,4.7-14.158,5.7-15.567a2.973,2.973,0,0,1,2.348-1.074C392,70.224,394.949,71.164,384.414,90.018Zm15.231,14.762a15.433,15.433,0,0,1-3.825,1.61l.537-.4c.268-.134.47-.335.671-.4v-.335c.067.2.134.268.2.134a.687.687,0,0,1,.4-.335c.067.2.067.268.067.134s0-.2.134-.2a7.313,7.313,0,0,0,2.416-.805c.805-.47,1.543-.671,2.348-1.074C401.39,103.707,400.652,104.243,399.646,104.78Zm5.1-2.885s-1.409.671-2.013.939a20.005,20.005,0,0,0,1.61-1.543C404.813,100.888,404.745,101.895,404.745,101.895Z" transform="translate(-124.254 -21.414)" fill="#fff"/>
    </g>
  </g>
</svg>
